<?xml version="1.0" encoding="UTF-8" standalone="no"?>
<!-- Created with Inkscape (http://www.inkscape.org/) -->
<svg id="svg4874" xmlns:rdf="http://www.w3.org/1999/02/22-rdf-syntax-ns#" xmlns="http://www.w3.org/2000/svg" height="90" viewBox="0 0 90 90.000001" width="90" version="1.1" xmlns:cc="http://creativecommons.org/ns#" xmlns:dc="http://purl.org/dc/elements/1.1/">
 <defs id="defs4876">
  <clipPath id="clipPath2991-6" clipPathUnits="userSpaceOnUse">
   <path id="path2993-6" style="color:#000000" d="m0 968.36v84h16.375c-1.5251-1.7576-2.6594-3.8737-3.25-6-0.99619-3.5863-1.0938-7.3341-1.0938-12v-36c0-4.6659 0.09756-8.4137 1.0938-12 0.99619-3.5863 3.5082-7.1465 6.9062-9 6.796-3.74 14.469-3.01 27.969-3.01h6c10.951 0 18.075-0.45164 24 1.3438v-7.375z" fill="#f0f"/>
  </clipPath>
 </defs>
 <metadata id="metadata4879">
  <rdf:RDF>
   <cc:Work rdf:about="">
    <dc:format>image/svg+xml</dc:format>
    <dc:type rdf:resource="http://purl.org/dc/dcmitype/StillImage"/>
    <dc:title/>
   </cc:Work>
  </rdf:RDF>
 </metadata>
 <g id="layer1" transform="translate(67.857 -84.505)">
  <path id="path5335" d="m-49.857 117.51v36c0 18 3 18 30 18h6c27 0 30 0 30-18v-36c0-18-3-18-30-18h-6c-27 0-30 0-30 18zm30-12h6c24 0 24 0 24 12v36c0 12 0 12-24 12h-6c-24 0-24 0-24-12v-36c0-12 0-12 24-12z" display="none" fill="#808080"/>
  <path id="path5337" d="m6 986.36v36c0 18 3 18 30 18h6c27 0 30 0 30-18v-36c0-18-3-18-30-18h-6c-27 0-30 0-30 18zm30-12h6c24 0 24 0 24 12v36c0 12 0 12-24 12h-6c-24 0-24 0-24-12v-36c0-12 0-12 24-12z" clip-path="url(#clipPath2991-6)" transform="translate(-67.857 -880.86)" display="none" fill="#808080"/>
  <g id="g4122" fill="none">
   <rect id="rect4120" opacity="0.03" style="color:#000000" height="90" width="90" y="84.505" x="-67.857"/>
   <path id="path4345" style="color:#000000" d="m-40.857 93.505v72" stroke="#808080" stroke-width="6"/>
   <path id="path4347" style="color:#000000" d="m-4.8571 93.505v72" stroke="#808080" stroke-width="6"/>
   <path id="path4349" style="color:#000000" d="m-64.857 144.51h84" stroke="#808080" stroke-width="6"/>
   <path id="path4351" style="color:#000000" d="m-64.857 114.51h84" stroke="#808080" stroke-width="6"/>
  </g>
 </g>
</svg>
