<?xml version="1.0" encoding="UTF-8" standalone="no"?>
<!-- Created with Inkscape (http://www.inkscape.org/) -->
<svg id="svg4874" xmlns:rdf="http://www.w3.org/1999/02/22-rdf-syntax-ns#" xmlns="http://www.w3.org/2000/svg" height="90" viewBox="0 0 90 90.000001" width="90" version="1.1" xmlns:cc="http://creativecommons.org/ns#" xmlns:dc="http://purl.org/dc/elements/1.1/">
 <defs id="defs4876">
  <clipPath id="clipPath2991-6" clipPathUnits="userSpaceOnUse">
   <path id="path2993-6" style="color:#000000" d="m0 968.36v84h16.375c-1.5251-1.7576-2.6594-3.8737-3.25-6-0.99619-3.5863-1.0938-7.3341-1.0938-12v-36c0-4.6659 0.09756-8.4137 1.0938-12 0.99619-3.5863 3.5082-7.1465 6.9062-9 6.796-3.74 14.469-3.01 27.969-3.01h6c10.951 0 18.075-0.45164 24 1.3438v-7.375z" fill="#f0f"/>
  </clipPath>
 </defs>
 <metadata id="metadata4879">
  <rdf:RDF>
   <cc:Work rdf:about="">
    <dc:format>image/svg+xml</dc:format>
    <dc:type rdf:resource="http://purl.org/dc/dcmitype/StillImage"/>
    <dc:title/>
   </cc:Work>
  </rdf:RDF>
 </metadata>
 <g id="layer1" transform="translate(67.857 -84.505)">
  <path id="path5335" d="m-49.857 117.51v36c0 18 3 18 30 18h6c27 0 30 0 30-18v-36c0-18-3-18-30-18h-6c-27 0-30 0-30 18zm30-12h6c24 0 24 0 24 12v36c0 12 0 12-24 12h-6c-24 0-24 0-24-12v-36c0-12 0-12 24-12z" display="none" fill="#808080"/>
  <path id="path5337" d="m6 986.36v36c0 18 3 18 30 18h6c27 0 30 0 30-18v-36c0-18-3-18-30-18h-6c-27 0-30 0-30 18zm30-12h6c24 0 24 0 24 12v36c0 12 0 12-24 12h-6c-24 0-24 0-24-12v-36c0-12 0-12 24-12z" clip-path="url(#clipPath2991-6)" transform="translate(-67.857 -880.86)" display="none" fill="#808080"/>
  <g id="g4122">
   <path id="path4185" style="color-rendering:auto;text-decoration-color:#000000;color:#000000;isolation:auto;mix-blend-mode:normal;shape-rendering:auto;solid-color:#000000;block-progression:tb;text-decoration-line:none;text-decoration-style:solid;image-rendering:auto;white-space:normal;text-indent:0;text-transform:none" d="m57 11.064v6.457c10.872 4.741 18.03 15.498 18 27.553-0.033 13.076-8.504 24.601-20.975 28.535-12.47 3.934-26.02-0.644-33.55-11.334-6.832-9.698-7.231-22.356-1.348-32.402-1.328-1.804-2.58-3.529-3.805-5.244-8.4756 12.344-8.4447 28.764 0.246 41.101 9.021 12.807 25.323 18.315 40.262 13.602s25.131-18.578 25.17-34.242c0.039-15.312-9.634-28.948-24-34.026z" transform="translate(-67.857 84.505)" fill="#808080"/>
   <rect id="rect4120" opacity="0.03" style="color:#000000" height="90" width="90" y="84.505" x="-67.857" fill="none"/>
   <circle id="path4187" style="color:#000000" cx="-22.857" cy="95.505" r="7" fill="#808080"/>
   <path id="path4201" style="color:#000000" d="m-16.101 133.27c2.982-2.9837 2.9831-7.8202 0.0022-10.803-2.7019-2.7034-34.135-27.011-39.755-28.957-0.000857 0.000857-0.0016 0.0027-0.0016 0.0046-0.000446 0.0019-0.000224 0.0037 0.000007 0.0065 0 0.0019-0.000119 0.0046-0.000445 0.0065-0.000226 0.0019-0.000827 0.0037-0.0016 0.0046 2.0344 5.6003 26.258 37.037 28.96 39.74 2.9809 2.9825 7.8147 2.9815 10.797-0.002z" fill="#808080"/>
  </g>
 </g>
</svg>
